<mxfile host="app.diagrams.net" modified="2021-01-19T15:55:54.016Z" agent="5.0 (Windows NT 10.0; WOW64) AppleWebKit/537.36 (KHTML, like Gecko) Chrome/75.0.3770.100 Safari/537.36" etag="qvRRLV9PIiwxkhsGCB1N" version="14.2.4" type="github">
  <diagram id="39hPNtNtvZGFWxoO7N3h" name="第 1 页">
    <mxGraphModel dx="782" dy="505" grid="1" gridSize="10" guides="1" tooltips="1" connect="1" arrows="1" fold="1" page="1" pageScale="1" pageWidth="827" pageHeight="1169" math="0" shadow="0">
      <root>
        <mxCell id="0" />
        <mxCell id="1" parent="0" />
        <mxCell id="9NneTWpd5QmC7ZWVTr1c-1" value="" style="shape=table;html=1;whiteSpace=wrap;startSize=0;container=1;collapsible=0;childLayout=tableLayout;" vertex="1" parent="1">
          <mxGeometry x="60" y="90" width="180" height="278" as="geometry" />
        </mxCell>
        <mxCell id="9NneTWpd5QmC7ZWVTr1c-2" value="" style="shape=partialRectangle;html=1;whiteSpace=wrap;collapsible=0;dropTarget=0;pointerEvents=0;fillColor=none;top=0;left=0;bottom=0;right=0;points=[[0,0.5],[1,0.5]];portConstraint=eastwest;" vertex="1" parent="9NneTWpd5QmC7ZWVTr1c-1">
          <mxGeometry width="180" height="47" as="geometry" />
        </mxCell>
        <mxCell id="9NneTWpd5QmC7ZWVTr1c-3" value="需要解决的问题" style="shape=partialRectangle;html=1;whiteSpace=wrap;connectable=0;overflow=hidden;fillColor=#b0e3e6;top=0;left=0;bottom=0;right=0;strokeColor=#0e8088;" vertex="1" parent="9NneTWpd5QmC7ZWVTr1c-2">
          <mxGeometry width="180" height="47" as="geometry" />
        </mxCell>
        <mxCell id="9NneTWpd5QmC7ZWVTr1c-7" value="" style="shape=partialRectangle;html=1;whiteSpace=wrap;collapsible=0;dropTarget=0;pointerEvents=0;fillColor=none;top=0;left=0;bottom=0;right=0;points=[[0,0.5],[1,0.5]];portConstraint=eastwest;" vertex="1" parent="9NneTWpd5QmC7ZWVTr1c-1">
          <mxGeometry y="47" width="180" height="43" as="geometry" />
        </mxCell>
        <mxCell id="9NneTWpd5QmC7ZWVTr1c-8" value="仪式感" style="shape=partialRectangle;html=1;whiteSpace=wrap;connectable=0;overflow=hidden;fillColor=none;top=0;left=0;bottom=0;right=0;" vertex="1" parent="9NneTWpd5QmC7ZWVTr1c-7">
          <mxGeometry width="180" height="43" as="geometry" />
        </mxCell>
        <mxCell id="9NneTWpd5QmC7ZWVTr1c-12" value="" style="shape=partialRectangle;html=1;whiteSpace=wrap;collapsible=0;dropTarget=0;pointerEvents=0;fillColor=none;top=0;left=0;bottom=0;right=0;points=[[0,0.5],[1,0.5]];portConstraint=eastwest;" vertex="1" parent="9NneTWpd5QmC7ZWVTr1c-1">
          <mxGeometry y="90" width="180" height="47" as="geometry" />
        </mxCell>
        <mxCell id="9NneTWpd5QmC7ZWVTr1c-13" value="引领用户" style="shape=partialRectangle;html=1;whiteSpace=wrap;connectable=0;overflow=hidden;fillColor=none;top=0;left=0;bottom=0;right=0;" vertex="1" parent="9NneTWpd5QmC7ZWVTr1c-12">
          <mxGeometry width="180" height="47" as="geometry" />
        </mxCell>
        <mxCell id="9NneTWpd5QmC7ZWVTr1c-17" value="" style="shape=partialRectangle;html=1;whiteSpace=wrap;collapsible=0;dropTarget=0;pointerEvents=0;fillColor=none;top=0;left=0;bottom=0;right=0;points=[[0,0.5],[1,0.5]];portConstraint=eastwest;" vertex="1" parent="9NneTWpd5QmC7ZWVTr1c-1">
          <mxGeometry y="137" width="180" height="47" as="geometry" />
        </mxCell>
        <mxCell id="9NneTWpd5QmC7ZWVTr1c-18" value="消除&quot;孤独感&quot;" style="shape=partialRectangle;html=1;whiteSpace=wrap;connectable=0;overflow=hidden;fillColor=none;top=0;left=0;bottom=0;right=0;" vertex="1" parent="9NneTWpd5QmC7ZWVTr1c-17">
          <mxGeometry width="180" height="47" as="geometry" />
        </mxCell>
        <mxCell id="9NneTWpd5QmC7ZWVTr1c-27" value="" style="shape=partialRectangle;html=1;whiteSpace=wrap;collapsible=0;dropTarget=0;pointerEvents=0;fillColor=none;top=0;left=0;bottom=0;right=0;points=[[0,0.5],[1,0.5]];portConstraint=eastwest;" vertex="1" parent="9NneTWpd5QmC7ZWVTr1c-1">
          <mxGeometry y="184" width="180" height="47" as="geometry" />
        </mxCell>
        <mxCell id="9NneTWpd5QmC7ZWVTr1c-28" value="与逝去的ta “重逢”" style="shape=partialRectangle;html=1;whiteSpace=wrap;connectable=0;overflow=hidden;fillColor=none;top=0;left=0;bottom=0;right=0;" vertex="1" parent="9NneTWpd5QmC7ZWVTr1c-27">
          <mxGeometry width="180" height="47" as="geometry" />
        </mxCell>
        <mxCell id="9NneTWpd5QmC7ZWVTr1c-32" value="" style="shape=partialRectangle;html=1;whiteSpace=wrap;collapsible=0;dropTarget=0;pointerEvents=0;fillColor=none;top=0;left=0;bottom=0;right=0;points=[[0,0.5],[1,0.5]];portConstraint=eastwest;" vertex="1" parent="9NneTWpd5QmC7ZWVTr1c-1">
          <mxGeometry y="231" width="180" height="47" as="geometry" />
        </mxCell>
        <mxCell id="9NneTWpd5QmC7ZWVTr1c-33" value="与逝去的ta “告别”" style="shape=partialRectangle;html=1;whiteSpace=wrap;connectable=0;overflow=hidden;fillColor=none;top=0;left=0;bottom=0;right=0;" vertex="1" parent="9NneTWpd5QmC7ZWVTr1c-32">
          <mxGeometry width="180" height="47" as="geometry" />
        </mxCell>
        <mxCell id="9NneTWpd5QmC7ZWVTr1c-50" value="" style="shape=table;html=1;whiteSpace=wrap;startSize=0;container=1;collapsible=0;childLayout=tableLayout;" vertex="1" parent="1">
          <mxGeometry x="340" y="80" width="210" height="320" as="geometry" />
        </mxCell>
        <mxCell id="9NneTWpd5QmC7ZWVTr1c-51" value="" style="shape=partialRectangle;html=1;whiteSpace=wrap;collapsible=0;dropTarget=0;pointerEvents=0;fillColor=#fad7ac;top=0;left=0;bottom=0;right=0;points=[[0,0.5],[1,0.5]];portConstraint=eastwest;strokeColor=#b46504;" vertex="1" parent="9NneTWpd5QmC7ZWVTr1c-50">
          <mxGeometry width="210" height="40" as="geometry" />
        </mxCell>
        <mxCell id="9NneTWpd5QmC7ZWVTr1c-52" value="实例功能" style="shape=partialRectangle;html=1;whiteSpace=wrap;connectable=0;overflow=hidden;fillColor=none;top=0;left=0;bottom=0;right=0;" vertex="1" parent="9NneTWpd5QmC7ZWVTr1c-51">
          <mxGeometry width="210" height="40" as="geometry" />
        </mxCell>
        <mxCell id="9NneTWpd5QmC7ZWVTr1c-53" value="" style="shape=partialRectangle;html=1;whiteSpace=wrap;collapsible=0;dropTarget=0;pointerEvents=0;fillColor=none;top=0;left=0;bottom=0;right=0;points=[[0,0.5],[1,0.5]];portConstraint=eastwest;" vertex="1" parent="9NneTWpd5QmC7ZWVTr1c-50">
          <mxGeometry y="40" width="210" height="40" as="geometry" />
        </mxCell>
        <mxCell id="9NneTWpd5QmC7ZWVTr1c-54" value="登录" style="shape=partialRectangle;html=1;whiteSpace=wrap;connectable=0;overflow=hidden;fillColor=none;top=0;left=0;bottom=0;right=0;" vertex="1" parent="9NneTWpd5QmC7ZWVTr1c-53">
          <mxGeometry width="210" height="40" as="geometry" />
        </mxCell>
        <mxCell id="9NneTWpd5QmC7ZWVTr1c-55" value="" style="shape=partialRectangle;html=1;whiteSpace=wrap;collapsible=0;dropTarget=0;pointerEvents=0;fillColor=none;top=0;left=0;bottom=0;right=0;points=[[0,0.5],[1,0.5]];portConstraint=eastwest;" vertex="1" parent="9NneTWpd5QmC7ZWVTr1c-50">
          <mxGeometry y="80" width="210" height="40" as="geometry" />
        </mxCell>
        <mxCell id="9NneTWpd5QmC7ZWVTr1c-56" value="情感性引言" style="shape=partialRectangle;html=1;whiteSpace=wrap;connectable=0;overflow=hidden;fillColor=none;top=0;left=0;bottom=0;right=0;" vertex="1" parent="9NneTWpd5QmC7ZWVTr1c-55">
          <mxGeometry width="210" height="40" as="geometry" />
        </mxCell>
        <mxCell id="9NneTWpd5QmC7ZWVTr1c-57" value="" style="shape=partialRectangle;html=1;whiteSpace=wrap;collapsible=0;dropTarget=0;pointerEvents=0;fillColor=none;top=0;left=0;bottom=0;right=0;points=[[0,0.5],[1,0.5]];portConstraint=eastwest;" vertex="1" parent="9NneTWpd5QmC7ZWVTr1c-50">
          <mxGeometry y="120" width="210" height="40" as="geometry" />
        </mxCell>
        <mxCell id="9NneTWpd5QmC7ZWVTr1c-58" value="多处按钮跳转" style="shape=partialRectangle;html=1;whiteSpace=wrap;connectable=0;overflow=hidden;fillColor=none;top=0;left=0;bottom=0;right=0;" vertex="1" parent="9NneTWpd5QmC7ZWVTr1c-57">
          <mxGeometry width="210" height="40" as="geometry" />
        </mxCell>
        <mxCell id="9NneTWpd5QmC7ZWVTr1c-59" value="" style="shape=partialRectangle;html=1;whiteSpace=wrap;collapsible=0;dropTarget=0;pointerEvents=0;fillColor=none;top=0;left=0;bottom=0;right=0;points=[[0,0.5],[1,0.5]];portConstraint=eastwest;" vertex="1" parent="9NneTWpd5QmC7ZWVTr1c-50">
          <mxGeometry y="160" width="210" height="40" as="geometry" />
        </mxCell>
        <mxCell id="9NneTWpd5QmC7ZWVTr1c-60" value="数据提取" style="shape=partialRectangle;html=1;whiteSpace=wrap;connectable=0;overflow=hidden;fillColor=none;top=0;left=0;bottom=0;right=0;" vertex="1" parent="9NneTWpd5QmC7ZWVTr1c-59">
          <mxGeometry width="210" height="40" as="geometry" />
        </mxCell>
        <mxCell id="9NneTWpd5QmC7ZWVTr1c-61" value="" style="shape=partialRectangle;html=1;whiteSpace=wrap;collapsible=0;dropTarget=0;pointerEvents=0;fillColor=none;top=0;left=0;bottom=0;right=0;points=[[0,0.5],[1,0.5]];portConstraint=eastwest;" vertex="1" parent="9NneTWpd5QmC7ZWVTr1c-50">
          <mxGeometry y="200" width="210" height="40" as="geometry" />
        </mxCell>
        <mxCell id="9NneTWpd5QmC7ZWVTr1c-62" value="数据分析" style="shape=partialRectangle;html=1;whiteSpace=wrap;connectable=0;overflow=hidden;fillColor=none;top=0;left=0;bottom=0;right=0;" vertex="1" parent="9NneTWpd5QmC7ZWVTr1c-61">
          <mxGeometry width="210" height="40" as="geometry" />
        </mxCell>
        <mxCell id="9NneTWpd5QmC7ZWVTr1c-69" value="" style="shape=partialRectangle;html=1;whiteSpace=wrap;collapsible=0;dropTarget=0;pointerEvents=0;fillColor=none;top=0;left=0;bottom=0;right=0;points=[[0,0.5],[1,0.5]];portConstraint=eastwest;" vertex="1" parent="9NneTWpd5QmC7ZWVTr1c-50">
          <mxGeometry y="240" width="210" height="40" as="geometry" />
        </mxCell>
        <mxCell id="9NneTWpd5QmC7ZWVTr1c-70" value="照片修复" style="shape=partialRectangle;html=1;whiteSpace=wrap;connectable=0;overflow=hidden;fillColor=none;top=0;left=0;bottom=0;right=0;" vertex="1" parent="9NneTWpd5QmC7ZWVTr1c-69">
          <mxGeometry width="210" height="40" as="geometry" />
        </mxCell>
        <mxCell id="9NneTWpd5QmC7ZWVTr1c-71" value="" style="shape=partialRectangle;html=1;whiteSpace=wrap;collapsible=0;dropTarget=0;pointerEvents=0;fillColor=none;top=0;left=0;bottom=0;right=0;points=[[0,0.5],[1,0.5]];portConstraint=eastwest;" vertex="1" parent="9NneTWpd5QmC7ZWVTr1c-50">
          <mxGeometry y="280" width="210" height="40" as="geometry" />
        </mxCell>
        <mxCell id="9NneTWpd5QmC7ZWVTr1c-72" value="答案之书" style="shape=partialRectangle;html=1;whiteSpace=wrap;connectable=0;overflow=hidden;fillColor=none;top=0;left=0;bottom=0;right=0;" vertex="1" parent="9NneTWpd5QmC7ZWVTr1c-71">
          <mxGeometry width="210" height="40" as="geometry" />
        </mxCell>
        <mxCell id="9NneTWpd5QmC7ZWVTr1c-65" value="" style="endArrow=classic;html=1;exitX=1;exitY=0.5;exitDx=0;exitDy=0;entryX=0;entryY=0.5;entryDx=0;entryDy=0;edgeStyle=orthogonalEdgeStyle;dashed=1;" edge="1" parent="1" source="9NneTWpd5QmC7ZWVTr1c-7" target="9NneTWpd5QmC7ZWVTr1c-53">
          <mxGeometry width="50" height="50" relative="1" as="geometry">
            <mxPoint x="260" y="200" as="sourcePoint" />
            <mxPoint x="310" y="150" as="targetPoint" />
          </mxGeometry>
        </mxCell>
        <mxCell id="9NneTWpd5QmC7ZWVTr1c-67" value="" style="endArrow=classic;html=1;exitX=1;exitY=0.5;exitDx=0;exitDy=0;entryX=0;entryY=0.5;entryDx=0;entryDy=0;edgeStyle=orthogonalEdgeStyle;dashed=1;" edge="1" parent="1" source="9NneTWpd5QmC7ZWVTr1c-12" target="9NneTWpd5QmC7ZWVTr1c-55">
          <mxGeometry width="50" height="50" relative="1" as="geometry">
            <mxPoint x="250" y="168.5" as="sourcePoint" />
            <mxPoint x="310" y="204" as="targetPoint" />
          </mxGeometry>
        </mxCell>
        <mxCell id="9NneTWpd5QmC7ZWVTr1c-68" value="" style="endArrow=classic;html=1;exitX=1;exitY=0.5;exitDx=0;exitDy=0;entryX=0;entryY=0.5;entryDx=0;entryDy=0;edgeStyle=orthogonalEdgeStyle;dashed=1;" edge="1" parent="1" source="9NneTWpd5QmC7ZWVTr1c-12" target="9NneTWpd5QmC7ZWVTr1c-57">
          <mxGeometry width="50" height="50" relative="1" as="geometry">
            <mxPoint x="250" y="213.5" as="sourcePoint" />
            <mxPoint x="320" y="214" as="targetPoint" />
          </mxGeometry>
        </mxCell>
        <mxCell id="9NneTWpd5QmC7ZWVTr1c-89" value="" style="endArrow=classic;html=1;exitX=1;exitY=0.5;exitDx=0;exitDy=0;entryX=0;entryY=0.5;entryDx=0;entryDy=0;edgeStyle=orthogonalEdgeStyle;dashed=1;" edge="1" parent="1" source="9NneTWpd5QmC7ZWVTr1c-27" target="9NneTWpd5QmC7ZWVTr1c-69">
          <mxGeometry width="50" height="50" relative="1" as="geometry">
            <mxPoint x="240" y="340" as="sourcePoint" />
            <mxPoint x="290" y="290" as="targetPoint" />
          </mxGeometry>
        </mxCell>
        <mxCell id="9NneTWpd5QmC7ZWVTr1c-90" value="" style="endArrow=classic;html=1;exitX=1;exitY=0.5;exitDx=0;exitDy=0;entryX=0;entryY=0.5;entryDx=0;entryDy=0;edgeStyle=orthogonalEdgeStyle;dashed=1;" edge="1" parent="1" source="9NneTWpd5QmC7ZWVTr1c-27" target="9NneTWpd5QmC7ZWVTr1c-71">
          <mxGeometry width="50" height="50" relative="1" as="geometry">
            <mxPoint x="290" y="330" as="sourcePoint" />
            <mxPoint x="340" y="280" as="targetPoint" />
          </mxGeometry>
        </mxCell>
        <mxCell id="9NneTWpd5QmC7ZWVTr1c-91" value="" style="endArrow=classic;html=1;exitX=1;exitY=0.5;exitDx=0;exitDy=0;entryX=0;entryY=0.5;entryDx=0;entryDy=0;edgeStyle=orthogonalEdgeStyle;dashed=1;" edge="1" parent="1" source="9NneTWpd5QmC7ZWVTr1c-32" target="9NneTWpd5QmC7ZWVTr1c-71">
          <mxGeometry width="50" height="50" relative="1" as="geometry">
            <mxPoint x="250" y="370" as="sourcePoint" />
            <mxPoint x="300" y="320" as="targetPoint" />
            <Array as="points">
              <mxPoint x="250" y="345" />
              <mxPoint x="250" y="400" />
              <mxPoint x="310" y="400" />
              <mxPoint x="310" y="380" />
            </Array>
          </mxGeometry>
        </mxCell>
        <mxCell id="9NneTWpd5QmC7ZWVTr1c-92" value="" style="endArrow=classic;html=1;exitX=1;exitY=0.5;exitDx=0;exitDy=0;entryX=0;entryY=0.5;entryDx=0;entryDy=0;edgeStyle=orthogonalEdgeStyle;dashed=1;" edge="1" parent="1" source="9NneTWpd5QmC7ZWVTr1c-17" target="9NneTWpd5QmC7ZWVTr1c-59">
          <mxGeometry width="50" height="50" relative="1" as="geometry">
            <mxPoint x="250" y="280" as="sourcePoint" />
            <mxPoint x="300" y="230" as="targetPoint" />
          </mxGeometry>
        </mxCell>
        <mxCell id="9NneTWpd5QmC7ZWVTr1c-93" value="" style="endArrow=classic;html=1;exitX=1;exitY=0.5;exitDx=0;exitDy=0;entryX=0;entryY=0.5;entryDx=0;entryDy=0;edgeStyle=orthogonalEdgeStyle;dashed=1;" edge="1" parent="1" source="9NneTWpd5QmC7ZWVTr1c-17" target="9NneTWpd5QmC7ZWVTr1c-61">
          <mxGeometry width="50" height="50" relative="1" as="geometry">
            <mxPoint x="240" y="300" as="sourcePoint" />
            <mxPoint x="290" y="250" as="targetPoint" />
          </mxGeometry>
        </mxCell>
        <mxCell id="9NneTWpd5QmC7ZWVTr1c-105" value="" style="shape=table;html=1;whiteSpace=wrap;startSize=0;container=1;collapsible=0;childLayout=tableLayout;" vertex="1" parent="1">
          <mxGeometry x="670" y="29" width="240" height="400" as="geometry" />
        </mxCell>
        <mxCell id="9NneTWpd5QmC7ZWVTr1c-106" value="" style="shape=partialRectangle;html=1;whiteSpace=wrap;collapsible=0;dropTarget=0;pointerEvents=0;fillColor=none;top=0;left=0;bottom=0;right=0;points=[[0,0.5],[1,0.5]];portConstraint=eastwest;" vertex="1" parent="9NneTWpd5QmC7ZWVTr1c-105">
          <mxGeometry width="240" height="40" as="geometry" />
        </mxCell>
        <mxCell id="9NneTWpd5QmC7ZWVTr1c-107" value="python 知识点" style="shape=partialRectangle;html=1;whiteSpace=wrap;connectable=0;overflow=hidden;fillColor=#cdeb8b;top=0;left=0;bottom=0;right=0;strokeColor=#36393d;" vertex="1" parent="9NneTWpd5QmC7ZWVTr1c-106">
          <mxGeometry width="240" height="40" as="geometry" />
        </mxCell>
        <mxCell id="9NneTWpd5QmC7ZWVTr1c-108" value="" style="shape=partialRectangle;html=1;whiteSpace=wrap;collapsible=0;dropTarget=0;pointerEvents=0;fillColor=none;top=0;left=0;bottom=0;right=0;points=[[0,0.5],[1,0.5]];portConstraint=eastwest;" vertex="1" parent="9NneTWpd5QmC7ZWVTr1c-105">
          <mxGeometry y="40" width="240" height="40" as="geometry" />
        </mxCell>
        <mxCell id="9NneTWpd5QmC7ZWVTr1c-109" value="pymysql-链接数据库" style="shape=partialRectangle;html=1;whiteSpace=wrap;connectable=0;overflow=hidden;fillColor=none;top=0;left=0;bottom=0;right=0;" vertex="1" parent="9NneTWpd5QmC7ZWVTr1c-108">
          <mxGeometry width="240" height="40" as="geometry" />
        </mxCell>
        <mxCell id="9NneTWpd5QmC7ZWVTr1c-110" value="" style="shape=partialRectangle;html=1;whiteSpace=wrap;collapsible=0;dropTarget=0;pointerEvents=0;fillColor=none;top=0;left=0;bottom=0;right=0;points=[[0,0.5],[1,0.5]];portConstraint=eastwest;" vertex="1" parent="9NneTWpd5QmC7ZWVTr1c-105">
          <mxGeometry y="80" width="240" height="40" as="geometry" />
        </mxCell>
        <mxCell id="9NneTWpd5QmC7ZWVTr1c-111" value="条件判断语句" style="shape=partialRectangle;html=1;whiteSpace=wrap;connectable=0;overflow=hidden;fillColor=none;top=0;left=0;bottom=0;right=0;" vertex="1" parent="9NneTWpd5QmC7ZWVTr1c-110">
          <mxGeometry width="240" height="40" as="geometry" />
        </mxCell>
        <mxCell id="9NneTWpd5QmC7ZWVTr1c-114" value="" style="shape=partialRectangle;html=1;whiteSpace=wrap;collapsible=0;dropTarget=0;pointerEvents=0;fillColor=none;top=0;left=0;bottom=0;right=0;points=[[0,0.5],[1,0.5]];portConstraint=eastwest;" vertex="1" parent="9NneTWpd5QmC7ZWVTr1c-105">
          <mxGeometry y="120" width="240" height="40" as="geometry" />
        </mxCell>
        <mxCell id="9NneTWpd5QmC7ZWVTr1c-115" value="pandas" style="shape=partialRectangle;html=1;whiteSpace=wrap;connectable=0;overflow=hidden;fillColor=none;top=0;left=0;bottom=0;right=0;" vertex="1" parent="9NneTWpd5QmC7ZWVTr1c-114">
          <mxGeometry width="240" height="40" as="geometry" />
        </mxCell>
        <mxCell id="9NneTWpd5QmC7ZWVTr1c-112" value="" style="shape=partialRectangle;html=1;whiteSpace=wrap;collapsible=0;dropTarget=0;pointerEvents=0;fillColor=none;top=0;left=0;bottom=0;right=0;points=[[0,0.5],[1,0.5]];portConstraint=eastwest;" vertex="1" parent="9NneTWpd5QmC7ZWVTr1c-105">
          <mxGeometry y="160" width="240" height="40" as="geometry" />
        </mxCell>
        <mxCell id="9NneTWpd5QmC7ZWVTr1c-113" value="列表及其元素的提取、遍历、存储" style="shape=partialRectangle;html=1;whiteSpace=wrap;connectable=0;overflow=hidden;fillColor=none;top=0;left=0;bottom=0;right=0;" vertex="1" parent="9NneTWpd5QmC7ZWVTr1c-112">
          <mxGeometry width="240" height="40" as="geometry" />
        </mxCell>
        <mxCell id="9NneTWpd5QmC7ZWVTr1c-124" value="" style="shape=partialRectangle;html=1;whiteSpace=wrap;collapsible=0;dropTarget=0;pointerEvents=0;fillColor=none;top=0;left=0;bottom=0;right=0;points=[[0,0.5],[1,0.5]];portConstraint=eastwest;" vertex="1" parent="9NneTWpd5QmC7ZWVTr1c-105">
          <mxGeometry y="200" width="240" height="40" as="geometry" />
        </mxCell>
        <mxCell id="9NneTWpd5QmC7ZWVTr1c-125" value="切片" style="shape=partialRectangle;html=1;whiteSpace=wrap;connectable=0;overflow=hidden;fillColor=none;top=0;left=0;bottom=0;right=0;" vertex="1" parent="9NneTWpd5QmC7ZWVTr1c-124">
          <mxGeometry width="240" height="40" as="geometry" />
        </mxCell>
        <mxCell id="9NneTWpd5QmC7ZWVTr1c-116" value="" style="shape=partialRectangle;html=1;whiteSpace=wrap;collapsible=0;dropTarget=0;pointerEvents=0;fillColor=none;top=0;left=0;bottom=0;right=0;points=[[0,0.5],[1,0.5]];portConstraint=eastwest;" vertex="1" parent="9NneTWpd5QmC7ZWVTr1c-105">
          <mxGeometry y="240" width="240" height="40" as="geometry" />
        </mxCell>
        <mxCell id="9NneTWpd5QmC7ZWVTr1c-117" value="API调用+封装成函数" style="shape=partialRectangle;html=1;whiteSpace=wrap;connectable=0;overflow=hidden;fillColor=none;top=0;left=0;bottom=0;right=0;" vertex="1" parent="9NneTWpd5QmC7ZWVTr1c-116">
          <mxGeometry width="240" height="40" as="geometry" />
        </mxCell>
        <mxCell id="9NneTWpd5QmC7ZWVTr1c-122" value="" style="shape=partialRectangle;html=1;whiteSpace=wrap;collapsible=0;dropTarget=0;pointerEvents=0;fillColor=none;top=0;left=0;bottom=0;right=0;points=[[0,0.5],[1,0.5]];portConstraint=eastwest;" vertex="1" parent="9NneTWpd5QmC7ZWVTr1c-105">
          <mxGeometry y="280" width="240" height="40" as="geometry" />
        </mxCell>
        <mxCell id="9NneTWpd5QmC7ZWVTr1c-123" value="图片与64编码的互相转换" style="shape=partialRectangle;html=1;whiteSpace=wrap;connectable=0;overflow=hidden;fillColor=none;top=0;left=0;bottom=0;right=0;" vertex="1" parent="9NneTWpd5QmC7ZWVTr1c-122">
          <mxGeometry width="240" height="40" as="geometry" />
        </mxCell>
        <mxCell id="9NneTWpd5QmC7ZWVTr1c-118" value="" style="shape=partialRectangle;html=1;whiteSpace=wrap;collapsible=0;dropTarget=0;pointerEvents=0;fillColor=none;top=0;left=0;bottom=0;right=0;points=[[0,0.5],[1,0.5]];portConstraint=eastwest;" vertex="1" parent="9NneTWpd5QmC7ZWVTr1c-105">
          <mxGeometry y="320" width="240" height="40" as="geometry" />
        </mxCell>
        <mxCell id="9NneTWpd5QmC7ZWVTr1c-119" value="列表的索引值" style="shape=partialRectangle;html=1;whiteSpace=wrap;connectable=0;overflow=hidden;fillColor=none;top=0;left=0;bottom=0;right=0;" vertex="1" parent="9NneTWpd5QmC7ZWVTr1c-118">
          <mxGeometry width="240" height="40" as="geometry" />
        </mxCell>
        <mxCell id="9NneTWpd5QmC7ZWVTr1c-120" value="" style="shape=partialRectangle;html=1;whiteSpace=wrap;collapsible=0;dropTarget=0;pointerEvents=0;fillColor=none;top=0;left=0;bottom=0;right=0;points=[[0,0.5],[1,0.5]];portConstraint=eastwest;" vertex="1" parent="9NneTWpd5QmC7ZWVTr1c-105">
          <mxGeometry y="360" width="240" height="40" as="geometry" />
        </mxCell>
        <mxCell id="9NneTWpd5QmC7ZWVTr1c-121" value="random模块" style="shape=partialRectangle;html=1;whiteSpace=wrap;connectable=0;overflow=hidden;fillColor=none;top=0;left=0;bottom=0;right=0;" vertex="1" parent="9NneTWpd5QmC7ZWVTr1c-120">
          <mxGeometry width="240" height="40" as="geometry" />
        </mxCell>
        <mxCell id="9NneTWpd5QmC7ZWVTr1c-127" value="" style="endArrow=classic;html=1;dashed=1;exitX=1;exitY=0.5;exitDx=0;exitDy=0;entryX=0.1;entryY=0.5;entryDx=0;entryDy=0;entryPerimeter=0;edgeStyle=orthogonalEdgeStyle;" edge="1" parent="1" source="9NneTWpd5QmC7ZWVTr1c-53" target="9NneTWpd5QmC7ZWVTr1c-128">
          <mxGeometry width="50" height="50" relative="1" as="geometry">
            <mxPoint x="560" y="170" as="sourcePoint" />
            <mxPoint x="610" y="120" as="targetPoint" />
          </mxGeometry>
        </mxCell>
        <mxCell id="9NneTWpd5QmC7ZWVTr1c-128" value="" style="shape=curlyBracket;whiteSpace=wrap;html=1;rounded=1;" vertex="1" parent="1">
          <mxGeometry x="640" y="70" width="20" height="70" as="geometry" />
        </mxCell>
        <mxCell id="9NneTWpd5QmC7ZWVTr1c-131" value="" style="shape=curlyBracket;whiteSpace=wrap;html=1;rounded=1;size=0.5;" vertex="1" parent="1">
          <mxGeometry x="640" y="366" width="20" height="50" as="geometry" />
        </mxCell>
        <mxCell id="9NneTWpd5QmC7ZWVTr1c-133" value="" style="shape=curlyBracket;whiteSpace=wrap;html=1;rounded=1;" vertex="1" parent="1">
          <mxGeometry x="640" y="284" width="20" height="56" as="geometry" />
        </mxCell>
        <mxCell id="9NneTWpd5QmC7ZWVTr1c-134" value="" style="edgeStyle=elbowEdgeStyle;elbow=horizontal;endArrow=classic;html=1;dashed=1;exitX=1;exitY=0.5;exitDx=0;exitDy=0;entryX=0.1;entryY=0.5;entryDx=0;entryDy=0;entryPerimeter=0;" edge="1" parent="1" source="9NneTWpd5QmC7ZWVTr1c-71" target="9NneTWpd5QmC7ZWVTr1c-131">
          <mxGeometry width="50" height="50" relative="1" as="geometry">
            <mxPoint x="550" y="490" as="sourcePoint" />
            <mxPoint x="600" y="440" as="targetPoint" />
            <Array as="points">
              <mxPoint x="570" y="391" />
              <mxPoint x="590" y="370" />
            </Array>
          </mxGeometry>
        </mxCell>
        <mxCell id="9NneTWpd5QmC7ZWVTr1c-135" value="" style="edgeStyle=orthogonalEdgeStyle;elbow=vertical;endArrow=classic;html=1;dashed=1;exitX=1;exitY=0.5;exitDx=0;exitDy=0;entryX=0.1;entryY=0.5;entryDx=0;entryDy=0;entryPerimeter=0;" edge="1" parent="1" source="9NneTWpd5QmC7ZWVTr1c-69" target="9NneTWpd5QmC7ZWVTr1c-133">
          <mxGeometry width="50" height="50" relative="1" as="geometry">
            <mxPoint x="590" y="360" as="sourcePoint" />
            <mxPoint x="640" y="310" as="targetPoint" />
            <Array as="points">
              <mxPoint x="630" y="340" />
              <mxPoint x="630" y="312" />
            </Array>
          </mxGeometry>
        </mxCell>
        <mxCell id="9NneTWpd5QmC7ZWVTr1c-136" value="" style="shape=curlyBracket;whiteSpace=wrap;html=1;rounded=1;" vertex="1" parent="1">
          <mxGeometry x="639" y="202" width="20" height="60" as="geometry" />
        </mxCell>
        <mxCell id="9NneTWpd5QmC7ZWVTr1c-137" value="" style="edgeStyle=orthogonalEdgeStyle;elbow=vertical;endArrow=classic;html=1;dashed=1;exitX=1;exitY=0.5;exitDx=0;exitDy=0;entryX=0.1;entryY=0.5;entryDx=0;entryDy=0;entryPerimeter=0;" edge="1" parent="1" source="9NneTWpd5QmC7ZWVTr1c-61" target="9NneTWpd5QmC7ZWVTr1c-136">
          <mxGeometry width="50" height="50" relative="1" as="geometry">
            <mxPoint x="570" y="320" as="sourcePoint" />
            <mxPoint x="620" y="270" as="targetPoint" />
            <Array as="points">
              <mxPoint x="590" y="300" />
              <mxPoint x="590" y="232" />
            </Array>
          </mxGeometry>
        </mxCell>
        <mxCell id="9NneTWpd5QmC7ZWVTr1c-138" value="" style="edgeStyle=orthogonalEdgeStyle;elbow=horizontal;endArrow=classic;html=1;dashed=1;exitX=1;exitY=0.5;exitDx=0;exitDy=0;entryX=0;entryY=0.5;entryDx=0;entryDy=0;" edge="1" parent="1" source="9NneTWpd5QmC7ZWVTr1c-59" target="9NneTWpd5QmC7ZWVTr1c-114">
          <mxGeometry width="50" height="50" relative="1" as="geometry">
            <mxPoint x="590" y="220" as="sourcePoint" />
            <mxPoint x="640" y="170" as="targetPoint" />
            <Array as="points">
              <mxPoint x="560" y="260" />
              <mxPoint x="560" y="169" />
            </Array>
          </mxGeometry>
        </mxCell>
      </root>
    </mxGraphModel>
  </diagram>
</mxfile>
